/* XPM */
static char * C_xpm[] = {
"12 15 2 1",
" 	c None",
".	c #0909BD",
"    ....... ",
"   .........",
"  ...      .",
" ..         ",
"...         ",
"..          ",
"..          ",
"..          ",
"..          ",
"..          ",
"...         ",
" ..         ",
"  ...      .",
"   .........",
"    ....... "};
