/* XPM */
static char * G_xpm[] = {
"13 15 2 1",
" 	c None",
".	c #0909BD",
"    .......  ",
"  .......... ",
" ....      . ",
" ..          ",
"...          ",
"..           ",
"..           ",
"..      .....",
"..      .....",
"..         ..",
"...        ..",
" ..        ..",
"  ...      ..",
"   ......... ",
"    ......   "};
