/* XPM */
static char * S_xpm[] = {
"10 15 2 1",
" 	c None",
".	c #0909BD",
"  ......  ",
" ........ ",
"...     . ",
"..        ",
"..        ",
"...       ",
" .....    ",
"  ......  ",
"      ... ",
"        ..",
"        ..",
"        ..",
".      ...",
"......... ",
" .......  "};
